# xmcd
#
# Track frame offsets:
#  150
#  11954
#  25074
#  38486
#  50631
#  68702
#  87129
#  124634
#  139526
#  151745
#  165636
#  183991
#  198561
#  217151
#  232518
#
# Disc length: 3323 seconds
#
# Revision: 0
# Processed by: cddbd v1.5.1PL2 Copyright (c) Steve Scherf et al.
# Submitted via: Collectorz.com_Music_Collector 6.9
#
DISCID=bc0cf90f
DTITLE=Various Artist - The Soul of Stax Vol.3
DYEAR=2002
DGENRE=
TTITLE0=Eddie Floyd - Bring It On Home To Me
TTITLE1=Otis Redding - Sittin' On The Dock Of The Bay
TTITLE2=Jean Knight - Carry On
TTITLE3=Johnnie Taylor - Take Care Of Your Homework
TTITLE4=Staple Singers - I'm Just Another Soldier
TTITLE5=Isaac Hayes - Theme From "The Men"
TTITLE6=Booker T. and The M.G.'s - Melting Pot
TTITLE7=Rufus Thomas - Do The Funky Penguin
TTITLE8=Lynda Lyndell - What A Man
TTITLE9=Bar-Kays - Sang And Dance
TTITLE10=Albert King - Hound Dog
TTITLE11=Carla Thomas - You've Got A Cushion To Fall On
TTITLE12=Soul Children - Put Your World In My World
TTITLE13=Dramatics - Fell For You
TTITLE14=Isaac Hayes - Never Can Say Goodbye
EXTD=
EXTT0=
EXTT1=
EXTT2=
EXTT3=
EXTT4=
EXTT5=
EXTT6=
EXTT7=
EXTT8=
EXTT9=
EXTT10=
EXTT11=
EXTT12=
EXTT13=
EXTT14=
PLAYORDER=
